<mxfile host="Chrome" modified="2020-07-21T03:27:56.764Z" agent="5.0 (Windows NT 10.0; Win64; x64) AppleWebKit/537.36 (KHTML, like Gecko) Chrome/84.0.4147.89 Safari/537.36" etag="nHHWyIDAnAFmw1T6dxet" compressed="false" version="13.4.4">
  <diagram id="m_eN9i9Ex8pSL6oraqq1" name="ページ1">
    <mxGraphModel dx="1769" dy="1312" grid="1" gridSize="10" guides="1" tooltips="1" connect="1" arrows="1" fold="1" page="1" pageScale="1" pageWidth="1169" pageHeight="827" math="0" shadow="0">
      <root>
        <mxCell id="0" />
        <mxCell id="1" parent="0" />
        <mxCell id="W9YzBoClRs7Fn5LGRyoq-1" value="" style="rounded=0;whiteSpace=wrap;html=1;" vertex="1" parent="1">
          <mxGeometry x="-740" y="-800" width="140" height="160" as="geometry" />
        </mxCell>
        <mxCell id="W9YzBoClRs7Fn5LGRyoq-10" value="&lt;font style=&quot;font-size: 22px&quot;&gt;ブラウザ WebUSB APIで BT電車制御&lt;/font&gt;" style="text;strokeColor=none;fillColor=none;html=1;fontSize=22;fontStyle=1;verticalAlign=middle;align=left;" vertex="1" parent="1">
          <mxGeometry x="-1150" y="-820" width="390" height="40" as="geometry" />
        </mxCell>
        <mxCell id="W9YzBoClRs7Fn5LGRyoq-6" value="List" style="swimlane;fontStyle=0;childLayout=stackLayout;horizontal=1;startSize=26;fillColor=none;horizontalStack=0;resizeParent=1;resizeParentMax=0;resizeLast=0;collapsible=1;marginBottom=0;" vertex="1" parent="1">
          <mxGeometry x="-740" y="-600" width="140" height="208" as="geometry" />
        </mxCell>
        <mxCell id="W9YzBoClRs7Fn5LGRyoq-7" value="Item 1" style="text;strokeColor=none;fillColor=none;align=left;verticalAlign=top;spacingLeft=4;spacingRight=4;overflow=hidden;rotatable=0;points=[[0,0.5],[1,0.5]];portConstraint=eastwest;" vertex="1" parent="W9YzBoClRs7Fn5LGRyoq-6">
          <mxGeometry y="26" width="140" height="26" as="geometry" />
        </mxCell>
        <mxCell id="W9YzBoClRs7Fn5LGRyoq-8" value="Item 2" style="text;strokeColor=none;fillColor=none;align=left;verticalAlign=top;spacingLeft=4;spacingRight=4;overflow=hidden;rotatable=0;points=[[0,0.5],[1,0.5]];portConstraint=eastwest;" vertex="1" parent="W9YzBoClRs7Fn5LGRyoq-6">
          <mxGeometry y="52" width="140" height="26" as="geometry" />
        </mxCell>
        <mxCell id="W9YzBoClRs7Fn5LGRyoq-9" value="Item 3" style="text;strokeColor=none;fillColor=none;align=left;verticalAlign=top;spacingLeft=4;spacingRight=4;overflow=hidden;rotatable=0;points=[[0,0.5],[1,0.5]];portConstraint=eastwest;" vertex="1" parent="W9YzBoClRs7Fn5LGRyoq-6">
          <mxGeometry y="78" width="140" height="26" as="geometry" />
        </mxCell>
        <mxCell id="W9YzBoClRs7Fn5LGRyoq-11" value="Item 3" style="text;strokeColor=none;fillColor=none;align=left;verticalAlign=top;spacingLeft=4;spacingRight=4;overflow=hidden;rotatable=0;points=[[0,0.5],[1,0.5]];portConstraint=eastwest;" vertex="1" parent="W9YzBoClRs7Fn5LGRyoq-6">
          <mxGeometry y="104" width="140" height="26" as="geometry" />
        </mxCell>
        <mxCell id="W9YzBoClRs7Fn5LGRyoq-12" value="Item 3" style="text;strokeColor=none;fillColor=none;align=left;verticalAlign=top;spacingLeft=4;spacingRight=4;overflow=hidden;rotatable=0;points=[[0,0.5],[1,0.5]];portConstraint=eastwest;" vertex="1" parent="W9YzBoClRs7Fn5LGRyoq-6">
          <mxGeometry y="130" width="140" height="26" as="geometry" />
        </mxCell>
        <mxCell id="W9YzBoClRs7Fn5LGRyoq-13" value="Item 3" style="text;strokeColor=none;fillColor=none;align=left;verticalAlign=top;spacingLeft=4;spacingRight=4;overflow=hidden;rotatable=0;points=[[0,0.5],[1,0.5]];portConstraint=eastwest;" vertex="1" parent="W9YzBoClRs7Fn5LGRyoq-6">
          <mxGeometry y="156" width="140" height="26" as="geometry" />
        </mxCell>
        <mxCell id="W9YzBoClRs7Fn5LGRyoq-14" value="Item 3" style="text;strokeColor=none;fillColor=none;align=left;verticalAlign=top;spacingLeft=4;spacingRight=4;overflow=hidden;rotatable=0;points=[[0,0.5],[1,0.5]];portConstraint=eastwest;" vertex="1" parent="W9YzBoClRs7Fn5LGRyoq-6">
          <mxGeometry y="182" width="140" height="26" as="geometry" />
        </mxCell>
        <mxCell id="W9YzBoClRs7Fn5LGRyoq-15" value="Cross-Functional Flowchart" style="shape=table;childLayout=tableLayout;rowLines=0;columnLines=0;startSize=40;html=1;whiteSpace=wrap;collapsible=0;recursiveResize=0;expand=0;pointerEvents=0;fontStyle=1;align=center;" vertex="1" parent="1">
          <mxGeometry x="-560" y="-800" width="230" height="250" as="geometry" />
        </mxCell>
        <mxCell id="W9YzBoClRs7Fn5LGRyoq-16" value="Actor 1" style="swimlane;horizontal=0;points=[[0,0.5],[1,0.5]];portConstraint=eastwest;startSize=40;html=1;whiteSpace=wrap;collapsible=0;recursiveResize=0;expand=0;pointerEvents=0;fontStyle=1" vertex="1" parent="W9YzBoClRs7Fn5LGRyoq-15">
          <mxGeometry y="40" width="230" height="70" as="geometry" />
        </mxCell>
        <mxCell id="W9YzBoClRs7Fn5LGRyoq-17" value="Phase 1" style="swimlane;connectable=0;startSize=40;html=1;whiteSpace=wrap;collapsible=0;recursiveResize=0;expand=0;pointerEvents=0;" vertex="1" parent="W9YzBoClRs7Fn5LGRyoq-16">
          <mxGeometry x="40" width="80" height="70" as="geometry" />
        </mxCell>
        <mxCell id="W9YzBoClRs7Fn5LGRyoq-18" value="Phase 2" style="swimlane;connectable=0;startSize=40;html=1;whiteSpace=wrap;collapsible=0;recursiveResize=0;expand=0;pointerEvents=0;" vertex="1" parent="W9YzBoClRs7Fn5LGRyoq-16">
          <mxGeometry x="120" width="47" height="70" as="geometry" />
        </mxCell>
        <mxCell id="W9YzBoClRs7Fn5LGRyoq-19" value="Phase 3" style="swimlane;connectable=0;startSize=40;html=1;whiteSpace=wrap;collapsible=0;recursiveResize=0;expand=0;pointerEvents=0;" vertex="1" parent="W9YzBoClRs7Fn5LGRyoq-16">
          <mxGeometry x="167" width="63" height="70" as="geometry" />
        </mxCell>
        <mxCell id="W9YzBoClRs7Fn5LGRyoq-20" value="Actor 2" style="swimlane;horizontal=0;points=[[0,0.5],[1,0.5]];portConstraint=eastwest;startSize=40;html=1;whiteSpace=wrap;collapsible=0;recursiveResize=0;expand=0;pointerEvents=0;" vertex="1" parent="W9YzBoClRs7Fn5LGRyoq-15">
          <mxGeometry y="110" width="230" height="70" as="geometry" />
        </mxCell>
        <mxCell id="W9YzBoClRs7Fn5LGRyoq-21" value="" style="swimlane;connectable=0;startSize=0;html=1;whiteSpace=wrap;collapsible=0;recursiveResize=0;expand=0;pointerEvents=0;" vertex="1" parent="W9YzBoClRs7Fn5LGRyoq-20">
          <mxGeometry x="40" width="80" height="70" as="geometry" />
        </mxCell>
        <mxCell id="W9YzBoClRs7Fn5LGRyoq-22" value="" style="swimlane;connectable=0;startSize=0;html=1;whiteSpace=wrap;collapsible=0;recursiveResize=0;expand=0;pointerEvents=0;" vertex="1" parent="W9YzBoClRs7Fn5LGRyoq-20">
          <mxGeometry x="120" width="47" height="70" as="geometry" />
        </mxCell>
        <mxCell id="W9YzBoClRs7Fn5LGRyoq-23" value="" style="swimlane;connectable=0;startSize=0;html=1;whiteSpace=wrap;collapsible=0;recursiveResize=0;expand=0;pointerEvents=0;" vertex="1" parent="W9YzBoClRs7Fn5LGRyoq-20">
          <mxGeometry x="167" width="63" height="70" as="geometry" />
        </mxCell>
        <mxCell id="W9YzBoClRs7Fn5LGRyoq-24" value="Actor 3" style="swimlane;horizontal=0;points=[[0,0.5],[1,0.5]];portConstraint=eastwest;startSize=40;html=1;whiteSpace=wrap;collapsible=0;recursiveResize=0;expand=0;pointerEvents=0;" vertex="1" parent="W9YzBoClRs7Fn5LGRyoq-15">
          <mxGeometry y="180" width="230" height="70" as="geometry" />
        </mxCell>
        <mxCell id="W9YzBoClRs7Fn5LGRyoq-25" value="" style="swimlane;connectable=0;startSize=0;html=1;whiteSpace=wrap;collapsible=0;recursiveResize=0;expand=0;pointerEvents=0;" vertex="1" parent="W9YzBoClRs7Fn5LGRyoq-24">
          <mxGeometry x="40" width="80" height="70" as="geometry" />
        </mxCell>
        <mxCell id="W9YzBoClRs7Fn5LGRyoq-26" value="" style="swimlane;connectable=0;startSize=0;html=1;whiteSpace=wrap;collapsible=0;recursiveResize=0;expand=0;pointerEvents=0;" vertex="1" parent="W9YzBoClRs7Fn5LGRyoq-24">
          <mxGeometry x="120" width="47" height="70" as="geometry" />
        </mxCell>
        <mxCell id="W9YzBoClRs7Fn5LGRyoq-27" value="" style="swimlane;connectable=0;startSize=0;html=1;whiteSpace=wrap;collapsible=0;recursiveResize=0;expand=0;pointerEvents=0;" vertex="1" parent="W9YzBoClRs7Fn5LGRyoq-24">
          <mxGeometry x="167" width="63" height="70" as="geometry" />
        </mxCell>
        <mxCell id="W9YzBoClRs7Fn5LGRyoq-2" value="Process Bar" style="swimlane;childLayout=stackLayout;horizontal=1;fillColor=none;horizontalStack=1;resizeParent=1;resizeParentMax=0;resizeLast=0;collapsible=0;strokeColor=none;stackBorder=10;stackSpacing=-12;resizable=1;align=center;points=[];fontColor=#000000;" vertex="1" parent="1">
          <mxGeometry x="-1150" y="-350" width="498" height="100" as="geometry" />
        </mxCell>
        <mxCell id="W9YzBoClRs7Fn5LGRyoq-3" value="Step 1" style="shape=step;perimeter=stepPerimeter;fixedSize=1;points=[];" vertex="1" parent="W9YzBoClRs7Fn5LGRyoq-2">
          <mxGeometry x="10" y="33" width="100" height="57" as="geometry" />
        </mxCell>
        <mxCell id="W9YzBoClRs7Fn5LGRyoq-4" value="Step 2" style="shape=step;perimeter=stepPerimeter;fixedSize=1;points=[];" vertex="1" parent="W9YzBoClRs7Fn5LGRyoq-2">
          <mxGeometry x="98" y="33" width="100" height="57" as="geometry" />
        </mxCell>
        <mxCell id="W9YzBoClRs7Fn5LGRyoq-5" value="Step 3" style="shape=step;perimeter=stepPerimeter;fixedSize=1;points=[];" vertex="1" parent="W9YzBoClRs7Fn5LGRyoq-2">
          <mxGeometry x="186" y="33" width="100" height="57" as="geometry" />
        </mxCell>
        <mxCell id="W9YzBoClRs7Fn5LGRyoq-33" value="" style="shape=xor;whiteSpace=wrap;html=1;direction=north;" vertex="1" parent="W9YzBoClRs7Fn5LGRyoq-2">
          <mxGeometry x="274" y="33" width="50" height="57" as="geometry" />
        </mxCell>
        <mxCell id="W9YzBoClRs7Fn5LGRyoq-34" value="" style="shape=xor;whiteSpace=wrap;html=1;direction=north;" vertex="1" parent="W9YzBoClRs7Fn5LGRyoq-2">
          <mxGeometry x="312" y="33" width="50" height="57" as="geometry" />
        </mxCell>
        <mxCell id="W9YzBoClRs7Fn5LGRyoq-35" value="" style="shape=xor;whiteSpace=wrap;html=1;direction=north;" vertex="1" parent="W9YzBoClRs7Fn5LGRyoq-2">
          <mxGeometry x="350" y="33" width="50" height="57" as="geometry" />
        </mxCell>
        <mxCell id="W9YzBoClRs7Fn5LGRyoq-32" value="Step 3" style="shape=step;perimeter=stepPerimeter;fixedSize=1;points=[];" vertex="1" parent="W9YzBoClRs7Fn5LGRyoq-2">
          <mxGeometry x="388" y="33" width="100" height="57" as="geometry" />
        </mxCell>
        <mxCell id="W9YzBoClRs7Fn5LGRyoq-36" value="&lt;font style=&quot;font-size: 18px&quot;&gt;ブラウザ側をUSB HIDインターフェース利用，&lt;br&gt;&lt;br&gt;Bluetooth HIDで無線制御。&lt;br&gt;&lt;/font&gt;" style="text;html=1;strokeColor=none;fillColor=none;align=left;verticalAlign=middle;whiteSpace=wrap;rounded=0;" vertex="1" parent="1">
          <mxGeometry x="-1140" y="-780" width="290" height="160" as="geometry" />
        </mxCell>
      </root>
    </mxGraphModel>
  </diagram>
</mxfile>
